<!DOCTYPE svg PUBLIC "-//W3C//DTD SVG 1.1//EN" "http://www.w3.org/Graphics/SVG/1.1/DTD/svg11.dtd">
<!-- Uploaded to: SVG Repo, www.svgrepo.com, Transformed by: SVG Repo Mixer Tools -->
<svg width="64px" height="64px" viewBox="0 0 1024 1024" xmlns="http://www.w3.org/2000/svg" fill="#000000">
<g id="SVGRepo_bgCarrier" stroke-width="0"/>
<g id="SVGRepo_tracerCarrier" stroke-linecap="round" stroke-linejoin="round"/>
<g id="SVGRepo_iconCarrier">
<path fill="#000000" d="M192 128v704h384V128H192zm-32-64h448a32 32 0 0 1 32 32v768a32 32 0 0 1-32 32H160a32 32 0 0 1-32-32V96a32 32 0 0 1 32-32z"/>
<path fill="#000000" d="M256 256h256v64H256v-64zm0 192h256v64H256v-64zm0 192h256v64H256v-64zm384-128h128v64H640v-64zm0 128h128v64H640v-64zM64 832h896v64H64v-64z"/>
<path fill="#000000" d="M640 384v448h192V384H640zm-32-64h256a32 32 0 0 1 32 32v512a32 32 0 0 1-32 32H608a32 32 0 0 1-32-32V352a32 32 0 0 1 32-32z"/>
</g>
</svg>