<?xml version="1.0" standalone="no"?>
<!DOCTYPE svg PUBLIC "-//W3C//DTD SVG 20010904//EN"
 "http://www.w3.org/TR/2001/REC-SVG-20010904/DTD/svg10.dtd">
<svg version="1.0" xmlns="http://www.w3.org/2000/svg"
 width="184.000000pt" height="89.000000pt" viewBox="0 0 184.000000 89.000000"
 preserveAspectRatio="xMidYMid meet">
<metadata>
Created by potrace 1.10, written by Peter Selinger 2001-2011
</metadata>
<g transform="translate(0.000000,89.000000) scale(0.100000,-0.100000)"
fill="#ff7701" stroke="none">
<path d="M312 760 c-78 -26 -157 -89 -200 -160 -44 -73 -55 -121 -50 -207 9
-130 81 -234 207 -296 61 -30 73 -32 171 -32 98 0 110 2 170 32 65 32 150 106
137 120 -4 3 -22 -7 -40 -24 -157 -149 -403 -146 -541 8 -52 57 -86 157 -81
234 9 136 99 256 223 295 88 27 193 27 269 -1 32 -12 60 -25 63 -28 3 -4 18
-15 33 -24 37 -24 101 -124 116 -181 14 -58 37 -75 27 -20 -11 65 -64 160
-109 200 -107 94 -263 127 -395 84z"/>
<path d="M223 642 c14 -16 17 -43 17 -168 0 -172 8 -211 56 -264 96 -106 274
-87 338 35 18 35 21 61 24 210 2 94 7 174 13 180 19 19 8 25 -48 25 -54 0 -55
-1 -40 -18 24 -27 25 -318 1 -368 -46 -96 -200 -100 -261 -7 -26 40 -33 331
-9 368 l16 25 -61 0 c-60 0 -61 -1 -46 -18z m61 -17 c-4 -8 -11 -15 -16 -15
-6 0 -5 6 2 15 7 8 14 15 16 15 2 0 1 -7 -2 -15z m349 3 c2 -7 0 -22 -4 -33
-9 -20 -9 -20 -7 0 2 11 -1 26 -5 33 -5 6 -4 12 1 12 6 0 12 -6 15 -12z m-355
-153 c-1 -111 -6 -95 -10 37 -2 47 0 81 4 75 4 -7 7 -57 6 -112z m349 -107
c-1 -40 -3 -10 -3 67 0 77 1 110 3 73 2 -37 2 -100 0 -140z m-338 -113 c-7 -7
-8 -4 -3 9 5 13 4 17 -4 12 -13 -8 -15 4 -5 30 6 15 8 13 15 -11 4 -18 3 -34
-3 -40z m37 -32 c-7 -7 -26 7 -26 19 0 6 6 6 15 -2 9 -7 13 -15 11 -17z m214
-34 c-41 -26 -96 -34 -130 -21 -20 8 -13 10 35 9 42 -1 67 4 85 16 13 9 29 17
35 17 5 0 -6 -10 -25 -21z m-165 1 c-3 -5 -11 -10 -16 -10 -6 0 -7 5 -4 10 3
6 11 10 16 10 6 0 7 -4 4 -10z"/>
<path d="M975 634 c-27 -22 -28 -26 -12 -35 14 -8 17 -25 17 -95 l0 -85 -22
15 c-28 20 -100 21 -138 1 -88 -45 -106 -165 -37 -239 44 -46 103 -62 153 -41
43 18 47 18 39 5 -12 -19 17 -10 46 14 16 14 25 28 19 31 -6 4 -10 91 -10 231
0 244 0 244 -55 198z m-25 -250 c30 -25 31 -29 28 -96 -2 -57 -6 -72 -22 -84
-59 -41 -180 23 -163 87 3 10 1 19 -5 21 -13 5 5 47 31 76 31 32 90 30 131 -4z"/>
<path d="M801 334 c0 -11 3 -14 6 -6 3 7 2 16 -1 19 -3 4 -6 -2 -5 -13z"/>
<path d="M1120 423 c-27 -22 -29 -28 -16 -35 13 -7 16 -27 16 -91 0 -91 11
-117 60 -142 39 -20 68 -19 115 5 47 24 49 24 42 6 -10 -24 4 -26 46 -4 34 17
38 22 24 30 -15 8 -17 27 -17 133 l0 125 -40 0 c-40 0 -53 -13 -25 -24 12 -4
15 -26 15 -111 l0 -106 -37 -15 c-41 -18 -87 -13 -115 13 -15 14 -18 33 -18
130 0 62 -4 113 -9 113 -5 0 -24 -12 -41 -27z"/>
<path d="M1525 432 c-16 -10 -36 -26 -44 -36 -12 -14 -11 -19 4 -36 24 -27 35
-25 35 5 0 30 40 59 69 50 17 -5 50 -71 39 -79 -1 -2 -33 -13 -69 -25 -72 -23
-94 -41 -104 -82 -9 -35 28 -76 75 -84 26 -5 48 0 85 19 42 22 51 23 58 11 4
-8 17 -20 28 -26 17 -9 25 -7 45 12 13 12 24 29 24 38 0 12 -3 12 -12 3 -34
-34 -53 -4 -73 111 -8 45 -23 93 -33 107 -25 33 -85 38 -127 12z m115 -146 c0
-7 3 -27 6 -43 5 -24 2 -31 -21 -41 -51 -23 -125 -7 -125 27 0 15 31 36 79 53
58 21 61 21 61 4z"/>
</g>
</svg>
